<mxfile host="app.diagrams.net" agent="Mozilla/5.0 (Windows NT 10.0; Win64; x64) AppleWebKit/537.36 (KHTML, like Gecko) Chrome/131.0.0.0 Safari/537.36" version="24.9.3">
  <diagram name="Page-1" id="2YBvvXClWsGukQMizWep">
    <mxGraphModel grid="1" page="1" gridSize="10" guides="1" tooltips="1" connect="1" arrows="1" fold="1" pageScale="1" pageWidth="850" pageHeight="1100" math="0" shadow="0">
      <root>
        <mxCell id="0" />
        <mxCell id="1" parent="0" />
        <mxCell id="RMWU4F3TAHHTFZhDBYDK-26" value="Acessa registrar residuos" style="edgeStyle=orthogonalEdgeStyle;rounded=0;orthogonalLoop=1;jettySize=auto;html=1;exitX=0.5;exitY=0.5;exitDx=0;exitDy=0;exitPerimeter=0;" edge="1" parent="1" source="RMWU4F3TAHHTFZhDBYDK-1" target="RMWU4F3TAHHTFZhDBYDK-4">
          <mxGeometry relative="1" as="geometry" />
        </mxCell>
        <mxCell id="RMWU4F3TAHHTFZhDBYDK-1" value="Usuario&lt;div&gt;&lt;br&gt;&lt;/div&gt;" style="shape=umlActor;verticalLabelPosition=bottom;verticalAlign=top;html=1;outlineConnect=0;" vertex="1" parent="1">
          <mxGeometry x="40" y="90" width="30" height="60" as="geometry" />
        </mxCell>
        <mxCell id="RMWU4F3TAHHTFZhDBYDK-35" value="Exibi mensagem de sucesso" style="edgeStyle=orthogonalEdgeStyle;rounded=0;orthogonalLoop=1;jettySize=auto;html=1;exitX=0;exitY=0;exitDx=0;exitDy=0;entryX=0.75;entryY=0.1;entryDx=0;entryDy=0;entryPerimeter=0;dashed=1;" edge="1" parent="1" target="RMWU4F3TAHHTFZhDBYDK-1">
          <mxGeometry relative="1" as="geometry">
            <mxPoint x="404.2257287525381" y="95.71572875253798" as="sourcePoint" />
            <mxPoint x="70.01" y="100" as="targetPoint" />
            <Array as="points">
              <mxPoint x="148" y="96" />
            </Array>
          </mxGeometry>
        </mxCell>
        <mxCell id="RMWU4F3TAHHTFZhDBYDK-4" value="Sistema" style="ellipse;whiteSpace=wrap;html=1;aspect=fixed;" vertex="1" parent="1">
          <mxGeometry x="385" y="80" width="80" height="80" as="geometry" />
        </mxCell>
        <mxCell id="RMWU4F3TAHHTFZhDBYDK-5" value="Banco de dados" style="ellipse;whiteSpace=wrap;html=1;aspect=fixed;" vertex="1" parent="1">
          <mxGeometry x="690" y="100" width="80" height="80" as="geometry" />
        </mxCell>
        <mxCell id="RMWU4F3TAHHTFZhDBYDK-27" value="Solicita o tipo e a quantidade" style="endArrow=classic;html=1;rounded=0;entryX=1;entryY=1;entryDx=0;entryDy=0;entryPerimeter=0;dashed=1;dashPattern=8 8;" edge="1" parent="1" source="RMWU4F3TAHHTFZhDBYDK-4" target="RMWU4F3TAHHTFZhDBYDK-1">
          <mxGeometry width="50" height="50" relative="1" as="geometry">
            <mxPoint x="70" y="180" as="sourcePoint" />
            <mxPoint x="300" y="230" as="targetPoint" />
            <Array as="points">
              <mxPoint x="380" y="150" />
            </Array>
          </mxGeometry>
        </mxCell>
        <mxCell id="RMWU4F3TAHHTFZhDBYDK-30" value="Fornece o Tipo e Quantidade" style="endArrow=classic;html=1;rounded=0;entryX=0.5;entryY=1;entryDx=0;entryDy=0;" edge="1" parent="1" source="RMWU4F3TAHHTFZhDBYDK-1" target="RMWU4F3TAHHTFZhDBYDK-4">
          <mxGeometry width="50" height="50" relative="1" as="geometry">
            <mxPoint x="58.571428571428555" y="180" as="sourcePoint" />
            <mxPoint x="419.8799999999999" y="192.39999999999998" as="targetPoint" />
            <Array as="points">
              <mxPoint x="60" y="192" />
              <mxPoint x="425" y="192" />
            </Array>
          </mxGeometry>
        </mxCell>
        <mxCell id="RMWU4F3TAHHTFZhDBYDK-32" value="Valida e registra os dados" style="edgeStyle=orthogonalEdgeStyle;rounded=0;orthogonalLoop=1;jettySize=auto;html=1;exitX=1;exitY=0.5;exitDx=0;exitDy=0;entryX=0.125;entryY=0.252;entryDx=0;entryDy=0;entryPerimeter=0;" edge="1" parent="1" source="RMWU4F3TAHHTFZhDBYDK-4" target="RMWU4F3TAHHTFZhDBYDK-5">
          <mxGeometry relative="1" as="geometry">
            <Array as="points">
              <mxPoint x="690" y="120" />
              <mxPoint x="690" y="120" />
            </Array>
          </mxGeometry>
        </mxCell>
        <mxCell id="RMWU4F3TAHHTFZhDBYDK-33" value="Confirma o registro" style="edgeStyle=orthogonalEdgeStyle;rounded=0;orthogonalLoop=1;jettySize=auto;html=1;exitX=0.016;exitY=0.559;exitDx=0;exitDy=0;exitPerimeter=0;dashed=1;" edge="1" parent="1">
          <mxGeometry relative="1" as="geometry">
            <mxPoint x="690" y="144.69000000000003" as="sourcePoint" />
            <mxPoint x="450.1450808505706" y="149.99857142857135" as="targetPoint" />
            <Array as="points">
              <mxPoint x="690" y="150" />
            </Array>
          </mxGeometry>
        </mxCell>
        <mxCell id="RMWU4F3TAHHTFZhDBYDK-41" value="Acessa as Dicas" style="edgeStyle=orthogonalEdgeStyle;rounded=0;orthogonalLoop=1;jettySize=auto;html=1;exitX=0.5;exitY=0.5;exitDx=0;exitDy=0;exitPerimeter=0;" edge="1" parent="1" source="RMWU4F3TAHHTFZhDBYDK-37" target="RMWU4F3TAHHTFZhDBYDK-38">
          <mxGeometry relative="1" as="geometry" />
        </mxCell>
        <mxCell id="RMWU4F3TAHHTFZhDBYDK-37" value="Usuario" style="shape=umlActor;verticalLabelPosition=bottom;verticalAlign=top;html=1;outlineConnect=0;" vertex="1" parent="1">
          <mxGeometry x="40" y="330" width="30" height="60" as="geometry" />
        </mxCell>
        <mxCell id="RMWU4F3TAHHTFZhDBYDK-42" value="Busca dicas de acordo com o usuario" style="edgeStyle=orthogonalEdgeStyle;rounded=0;orthogonalLoop=1;jettySize=auto;html=1;exitX=1;exitY=0.5;exitDx=0;exitDy=0;" edge="1" parent="1" source="RMWU4F3TAHHTFZhDBYDK-38" target="RMWU4F3TAHHTFZhDBYDK-39">
          <mxGeometry relative="1" as="geometry" />
        </mxCell>
        <mxCell id="RMWU4F3TAHHTFZhDBYDK-45" value="Exibe a lista de dicas" style="edgeStyle=orthogonalEdgeStyle;rounded=0;orthogonalLoop=1;jettySize=auto;html=1;exitX=0;exitY=1;exitDx=0;exitDy=0;dashed=1;" edge="1" parent="1" source="RMWU4F3TAHHTFZhDBYDK-38">
          <mxGeometry relative="1" as="geometry">
            <mxPoint x="80" y="388.1428571428571" as="targetPoint" />
          </mxGeometry>
        </mxCell>
        <mxCell id="RMWU4F3TAHHTFZhDBYDK-47" value="Atualiza informacoes sobre dicas lidas" style="edgeStyle=orthogonalEdgeStyle;rounded=0;orthogonalLoop=1;jettySize=auto;html=1;exitX=1;exitY=0;exitDx=0;exitDy=0;entryX=0;entryY=0;entryDx=0;entryDy=0;" edge="1" parent="1" source="RMWU4F3TAHHTFZhDBYDK-38" target="RMWU4F3TAHHTFZhDBYDK-39">
          <mxGeometry relative="1" as="geometry" />
        </mxCell>
        <mxCell id="RMWU4F3TAHHTFZhDBYDK-38" value="Sistema" style="ellipse;whiteSpace=wrap;html=1;aspect=fixed;" vertex="1" parent="1">
          <mxGeometry x="300" y="320" width="80" height="80" as="geometry" />
        </mxCell>
        <mxCell id="RMWU4F3TAHHTFZhDBYDK-44" value="Retorna dicas do perfil" style="edgeStyle=orthogonalEdgeStyle;rounded=0;orthogonalLoop=1;jettySize=auto;html=1;exitX=0;exitY=1;exitDx=0;exitDy=0;entryX=1;entryY=1;entryDx=0;entryDy=0;dashed=1;" edge="1" parent="1" source="RMWU4F3TAHHTFZhDBYDK-39" target="RMWU4F3TAHHTFZhDBYDK-38">
          <mxGeometry relative="1" as="geometry">
            <mxPoint as="offset" />
          </mxGeometry>
        </mxCell>
        <mxCell id="RMWU4F3TAHHTFZhDBYDK-39" value="Banco de Dados" style="ellipse;whiteSpace=wrap;html=1;aspect=fixed;" vertex="1" parent="1">
          <mxGeometry x="640" y="320" width="80" height="80" as="geometry" />
        </mxCell>
        <mxCell id="RMWU4F3TAHHTFZhDBYDK-46" value="Informa que leu as dicas" style="edgeStyle=orthogonalEdgeStyle;rounded=0;orthogonalLoop=1;jettySize=auto;html=1;exitX=0.75;exitY=0.1;exitDx=0;exitDy=0;exitPerimeter=0;entryX=0.091;entryY=0.202;entryDx=0;entryDy=0;entryPerimeter=0;" edge="1" parent="1" source="RMWU4F3TAHHTFZhDBYDK-37" target="RMWU4F3TAHHTFZhDBYDK-38">
          <mxGeometry relative="1" as="geometry" />
        </mxCell>
        <mxCell id="RMWU4F3TAHHTFZhDBYDK-53" value="Acessa Quantidade de Residuos" style="edgeStyle=orthogonalEdgeStyle;rounded=0;orthogonalLoop=1;jettySize=auto;html=1;exitX=0.5;exitY=0.5;exitDx=0;exitDy=0;exitPerimeter=0;entryX=0;entryY=0.5;entryDx=0;entryDy=0;" edge="1" parent="1" source="RMWU4F3TAHHTFZhDBYDK-49" target="RMWU4F3TAHHTFZhDBYDK-51">
          <mxGeometry relative="1" as="geometry" />
        </mxCell>
        <mxCell id="RMWU4F3TAHHTFZhDBYDK-49" value="Usuario" style="shape=umlActor;verticalLabelPosition=bottom;verticalAlign=top;html=1;outlineConnect=0;" vertex="1" parent="1">
          <mxGeometry x="30" y="480" width="30" height="60" as="geometry" />
        </mxCell>
        <mxCell id="RMWU4F3TAHHTFZhDBYDK-54" value="Busca dados sobre" style="edgeStyle=orthogonalEdgeStyle;rounded=0;orthogonalLoop=1;jettySize=auto;html=1;exitX=1;exitY=0.5;exitDx=0;exitDy=0;" edge="1" parent="1" source="RMWU4F3TAHHTFZhDBYDK-51" target="RMWU4F3TAHHTFZhDBYDK-52">
          <mxGeometry relative="1" as="geometry" />
        </mxCell>
        <mxCell id="RMWU4F3TAHHTFZhDBYDK-51" value="Sistema" style="ellipse;whiteSpace=wrap;html=1;aspect=fixed;" vertex="1" parent="1">
          <mxGeometry x="340" y="470" width="80" height="80" as="geometry" />
        </mxCell>
        <mxCell id="RMWU4F3TAHHTFZhDBYDK-55" value="Retorna as informacoes" style="edgeStyle=orthogonalEdgeStyle;rounded=0;orthogonalLoop=1;jettySize=auto;html=1;exitX=0;exitY=1;exitDx=0;exitDy=0;entryX=1;entryY=1;entryDx=0;entryDy=0;dashed=1;" edge="1" parent="1" source="RMWU4F3TAHHTFZhDBYDK-52" target="RMWU4F3TAHHTFZhDBYDK-51">
          <mxGeometry relative="1" as="geometry" />
        </mxCell>
        <mxCell id="RMWU4F3TAHHTFZhDBYDK-52" value="Banco de Dados" style="ellipse;whiteSpace=wrap;html=1;aspect=fixed;" vertex="1" parent="1">
          <mxGeometry x="650" y="470" width="80" height="80" as="geometry" />
        </mxCell>
        <mxCell id="RMWU4F3TAHHTFZhDBYDK-56" value="Exibe os dados para o usuario" style="edgeStyle=orthogonalEdgeStyle;rounded=0;orthogonalLoop=1;jettySize=auto;html=1;exitX=0.5;exitY=1;exitDx=0;exitDy=0;dashed=1;" edge="1" parent="1" source="RMWU4F3TAHHTFZhDBYDK-51" target="RMWU4F3TAHHTFZhDBYDK-49">
          <mxGeometry relative="1" as="geometry">
            <mxPoint x="380" y="570" as="sourcePoint" />
            <mxPoint x="40" y="572" as="targetPoint" />
            <Array as="points">
              <mxPoint x="380" y="570" />
              <mxPoint x="45" y="570" />
            </Array>
          </mxGeometry>
        </mxCell>
        <mxCell id="RMWU4F3TAHHTFZhDBYDK-60" value="Finaliza ou retorna ao menu" style="edgeStyle=orthogonalEdgeStyle;rounded=0;orthogonalLoop=1;jettySize=auto;html=1;exitX=0.75;exitY=0.1;exitDx=0;exitDy=0;exitPerimeter=0;entryX=0.148;entryY=0.205;entryDx=0;entryDy=0;entryPerimeter=0;" edge="1" parent="1" source="RMWU4F3TAHHTFZhDBYDK-49" target="RMWU4F3TAHHTFZhDBYDK-51">
          <mxGeometry relative="1" as="geometry" />
        </mxCell>
        <mxCell id="RMWU4F3TAHHTFZhDBYDK-77" value="Acessa Agendar Coletas" style="edgeStyle=orthogonalEdgeStyle;rounded=0;orthogonalLoop=1;jettySize=auto;html=1;exitX=0.5;exitY=0.5;exitDx=0;exitDy=0;exitPerimeter=0;" edge="1" parent="1" source="RMWU4F3TAHHTFZhDBYDK-61" target="RMWU4F3TAHHTFZhDBYDK-62">
          <mxGeometry relative="1" as="geometry" />
        </mxCell>
        <mxCell id="RMWU4F3TAHHTFZhDBYDK-61" value="Usuario" style="shape=umlActor;verticalLabelPosition=bottom;verticalAlign=top;html=1;outlineConnect=0;" vertex="1" parent="1">
          <mxGeometry x="30" y="660" width="30" height="60" as="geometry" />
        </mxCell>
        <mxCell id="RMWU4F3TAHHTFZhDBYDK-81" value="Verifica a disponibilidade" style="edgeStyle=orthogonalEdgeStyle;rounded=0;orthogonalLoop=1;jettySize=auto;html=1;exitX=1;exitY=0.5;exitDx=0;exitDy=0;entryX=0;entryY=0.5;entryDx=0;entryDy=0;" edge="1" parent="1" source="RMWU4F3TAHHTFZhDBYDK-62" target="RMWU4F3TAHHTFZhDBYDK-63">
          <mxGeometry relative="1" as="geometry" />
        </mxCell>
        <mxCell id="RMWU4F3TAHHTFZhDBYDK-88" value="Exibe confirmacao de agendamento" style="edgeStyle=orthogonalEdgeStyle;rounded=0;orthogonalLoop=1;jettySize=auto;html=1;exitX=0.613;exitY=1.013;exitDx=0;exitDy=0;exitPerimeter=0;dashed=1;" edge="1" parent="1" source="RMWU4F3TAHHTFZhDBYDK-62" target="RMWU4F3TAHHTFZhDBYDK-61">
          <mxGeometry relative="1" as="geometry">
            <mxPoint x="40" y="749.9985714285715" as="targetPoint" />
            <mxPoint x="380" y="789.97" as="sourcePoint" />
            <Array as="points">
              <mxPoint x="409" y="760" />
              <mxPoint x="45" y="760" />
            </Array>
          </mxGeometry>
        </mxCell>
        <mxCell id="RMWU4F3TAHHTFZhDBYDK-91" value="Retorna Mensagem de Sucesso" style="edgeStyle=orthogonalEdgeStyle;rounded=0;orthogonalLoop=1;jettySize=auto;html=1;exitX=0.755;exitY=0.963;exitDx=0;exitDy=0;exitPerimeter=0;entryX=0;entryY=0.3333333333333333;entryDx=0;entryDy=0;entryPerimeter=0;" edge="1" parent="1" source="RMWU4F3TAHHTFZhDBYDK-62" target="RMWU4F3TAHHTFZhDBYDK-61">
          <mxGeometry relative="1" as="geometry">
            <mxPoint x="20" y="660" as="targetPoint" />
            <mxPoint x="420" y="770" as="sourcePoint" />
            <Array as="points">
              <mxPoint x="420" y="790" />
              <mxPoint x="10" y="790" />
              <mxPoint x="10" y="680" />
            </Array>
          </mxGeometry>
        </mxCell>
        <mxCell id="RMWU4F3TAHHTFZhDBYDK-62" value="Sistema" style="ellipse;whiteSpace=wrap;html=1;aspect=fixed;" vertex="1" parent="1">
          <mxGeometry x="360" y="650" width="80" height="80" as="geometry" />
        </mxCell>
        <mxCell id="RMWU4F3TAHHTFZhDBYDK-87" value="Retorna opcoes disponiveis" style="edgeStyle=orthogonalEdgeStyle;rounded=0;orthogonalLoop=1;jettySize=auto;html=1;exitX=0;exitY=1;exitDx=0;exitDy=0;entryX=1;entryY=1;entryDx=0;entryDy=0;dashed=1;" edge="1" parent="1" source="RMWU4F3TAHHTFZhDBYDK-63" target="RMWU4F3TAHHTFZhDBYDK-62">
          <mxGeometry relative="1" as="geometry" />
        </mxCell>
        <mxCell id="RMWU4F3TAHHTFZhDBYDK-63" value="Banco de Dados" style="ellipse;whiteSpace=wrap;html=1;aspect=fixed;" vertex="1" parent="1">
          <mxGeometry x="660" y="650" width="80" height="80" as="geometry" />
        </mxCell>
        <mxCell id="RMWU4F3TAHHTFZhDBYDK-66" value="&amp;lt;&amp;lt;include&amp;gt;&amp;gt;" style="endArrow=classic;html=1;rounded=0;entryX=-0.011;entryY=0.564;entryDx=0;entryDy=0;entryPerimeter=0;dashed=1;" edge="1" parent="1" target="RMWU4F3TAHHTFZhDBYDK-71">
          <mxGeometry width="50" height="50" relative="1" as="geometry">
            <mxPoint x="450" y="90" as="sourcePoint" />
            <mxPoint x="520" y="60" as="targetPoint" />
          </mxGeometry>
        </mxCell>
        <mxCell id="RMWU4F3TAHHTFZhDBYDK-71" value="Valida Dados dos residuos" style="rounded=0;whiteSpace=wrap;html=1;" vertex="1" parent="1">
          <mxGeometry x="520" y="40" width="120" height="40" as="geometry" />
        </mxCell>
        <mxCell id="RMWU4F3TAHHTFZhDBYDK-73" value="&amp;lt;&amp;lt;include&amp;gt;" style="endArrow=classic;html=1;rounded=0;dashed=1;entryX=0;entryY=0.5;entryDx=0;entryDy=0;" edge="1" parent="1" target="RMWU4F3TAHHTFZhDBYDK-74">
          <mxGeometry width="50" height="50" relative="1" as="geometry">
            <mxPoint x="340" y="320" as="sourcePoint" />
            <mxPoint x="390" y="270" as="targetPoint" />
          </mxGeometry>
        </mxCell>
        <mxCell id="RMWU4F3TAHHTFZhDBYDK-74" value="Seleciona Perfil" style="rounded=0;whiteSpace=wrap;html=1;" vertex="1" parent="1">
          <mxGeometry x="410" y="250" width="100" height="30" as="geometry" />
        </mxCell>
        <mxCell id="RMWU4F3TAHHTFZhDBYDK-78" value="Solicita a localizacao e tipo" style="edgeStyle=orthogonalEdgeStyle;rounded=0;orthogonalLoop=1;jettySize=auto;html=1;exitX=0;exitY=1;exitDx=0;exitDy=0;entryX=1;entryY=1;entryDx=0;entryDy=0;entryPerimeter=0;dashed=1;" edge="1" parent="1" source="RMWU4F3TAHHTFZhDBYDK-62" target="RMWU4F3TAHHTFZhDBYDK-61">
          <mxGeometry relative="1" as="geometry">
            <Array as="points">
              <mxPoint x="372" y="720" />
            </Array>
          </mxGeometry>
        </mxCell>
        <mxCell id="RMWU4F3TAHHTFZhDBYDK-79" value="Fornece as informacoes" style="edgeStyle=orthogonalEdgeStyle;rounded=0;orthogonalLoop=1;jettySize=auto;html=1;exitX=0.75;exitY=0.1;exitDx=0;exitDy=0;exitPerimeter=0;entryX=0.125;entryY=0.198;entryDx=0;entryDy=0;entryPerimeter=0;" edge="1" parent="1" source="RMWU4F3TAHHTFZhDBYDK-61" target="RMWU4F3TAHHTFZhDBYDK-62">
          <mxGeometry relative="1" as="geometry" />
        </mxCell>
        <mxCell id="RMWU4F3TAHHTFZhDBYDK-82" value="Confirma disponibilidade" style="rounded=0;whiteSpace=wrap;html=1;" vertex="1" parent="1">
          <mxGeometry x="490" y="590" width="100" height="40" as="geometry" />
        </mxCell>
        <mxCell id="RMWU4F3TAHHTFZhDBYDK-85" value="&amp;lt;&amp;lt;extend&amp;gt;&amp;gt;" style="endArrow=classic;html=1;rounded=0;exitX=0.813;exitY=0.155;exitDx=0;exitDy=0;exitPerimeter=0;entryX=-0.016;entryY=0.396;entryDx=0;entryDy=0;entryPerimeter=0;dashed=1;" edge="1" parent="1" source="RMWU4F3TAHHTFZhDBYDK-62" target="RMWU4F3TAHHTFZhDBYDK-82">
          <mxGeometry width="50" height="50" relative="1" as="geometry">
            <mxPoint x="425.00427124746193" y="659.9957287525381" as="sourcePoint" />
            <mxPoint x="486.72" y="608.28" as="targetPoint" />
          </mxGeometry>
        </mxCell>
        <mxCell id="RMWU4F3TAHHTFZhDBYDK-89" value="Confirma agendamento" style="edgeStyle=orthogonalEdgeStyle;rounded=0;orthogonalLoop=1;jettySize=auto;html=1;exitX=0.5;exitY=0;exitDx=0;exitDy=0;exitPerimeter=0;entryX=0.427;entryY=0.013;entryDx=0;entryDy=0;entryPerimeter=0;" edge="1" parent="1" source="RMWU4F3TAHHTFZhDBYDK-61" target="RMWU4F3TAHHTFZhDBYDK-62">
          <mxGeometry relative="1" as="geometry" />
        </mxCell>
        <mxCell id="RMWU4F3TAHHTFZhDBYDK-90" value="Registra agendamento" style="endArrow=classic;html=1;rounded=0;exitX=0.948;exitY=0.241;exitDx=0;exitDy=0;exitPerimeter=0;entryX=0;entryY=0;entryDx=0;entryDy=0;" edge="1" parent="1" source="RMWU4F3TAHHTFZhDBYDK-62" target="RMWU4F3TAHHTFZhDBYDK-63">
          <mxGeometry width="50" height="50" relative="1" as="geometry">
            <mxPoint x="440.00000000000006" y="684.4000000000001" as="sourcePoint" />
            <mxPoint x="501.84" y="640" as="targetPoint" />
          </mxGeometry>
        </mxCell>
      </root>
    </mxGraphModel>
  </diagram>
</mxfile>
